<?xml version="1.0" standalone="no"?>
<!DOCTYPE svg PUBLIC "-//W3C//DTD SVG 20010904//EN"
 "http://www.w3.org/TR/2001/REC-SVG-20010904/DTD/svg10.dtd">
<svg version="1.0" xmlns="http://www.w3.org/2000/svg"
 width="260.000000pt" height="260.000000pt" viewBox="0 0 260.000000 260.000000"
 preserveAspectRatio="xMidYMid meet">
<metadata>
Created by potrace 1.14, written by Peter Selinger 2001-2017
</metadata>
<g transform="translate(0.000000,260.000000) scale(0.100000,-0.100000)"
fill="#000000" stroke="none">
<path d="M0 1300 l0 -1300 1300 0 1300 0 0 240 c0 233 -1 240 -20 240 -17 0
-20 7 -20 40 0 29 -4 40 -15 40 -8 0 -15 7 -15 15 0 8 -9 15 -20 15 -13 0 -20
7 -20 20 0 13 -7 20 -20 20 -17 0 -20 7 -20 40 0 39 -1 40 -35 40 -24 0 -35 5
-35 15 0 8 -9 15 -20 15 -13 0 -20 7 -20 20 0 16 -7 20 -35 20 -28 0 -35 4
-35 20 0 17 -7 20 -40 20 -29 0 -40 4 -40 15 0 13 -25 15 -165 15 -140 0 -165
-2 -165 -15 0 -11 -11 -15 -40 -15 l-40 0 0 55 c0 48 2 55 20 55 13 0 20 7 20
20 0 16 7 20 35 20 24 0 35 5 35 15 0 12 13 15 60 15 53 0 60 2 60 20 0 18 7
20 55 20 48 0 55 -2 55 -20 0 -19 7 -20 90 -20 73 0 90 -3 90 -15 0 -11 11
-15 40 -15 33 0 40 -3 40 -20 0 -11 7 -20 15 -20 8 0 15 -9 15 -20 0 -17 7
-20 40 -20 33 0 40 -3 40 -20 0 -13 7 -20 20 -20 16 0 20 -7 20 -35 0 -24 5
-35 15 -35 8 0 15 -9 15 -20 0 -13 7 -20 20 -20 19 0 20 7 20 245 l0 245 -35
0 c-24 0 -35 5 -35 15 0 13 -21 15 -130 15 -109 0 -130 -2 -130 -15 0 -12 -13
-15 -60 -15 -53 0 -60 -2 -60 -20 0 -16 -7 -20 -35 -20 -28 0 -35 4 -35 20 0
13 7 20 20 20 11 0 20 7 20 15 0 10 11 15 35 15 28 0 35 4 35 20 0 18 7 20 55
20 48 0 55 2 55 20 0 18 7 20 75 20 68 0 75 -2 75 -20 0 -18 7 -20 55 -20 48
0 55 -2 55 -20 0 -13 7 -20 20 -20 20 0 20 7 20 670 l0 670 -185 0 -185 0 0
-130 0 -130 -40 0 c-39 0 -40 -1 -40 -35 0 -24 -5 -35 -15 -35 -8 0 -15 -9
-15 -20 0 -17 -7 -20 -40 -20 -33 0 -40 -3 -40 -20 0 -11 -7 -20 -15 -20 -8 0
-15 -9 -15 -20 0 -13 -7 -20 -20 -20 -11 0 -20 -7 -20 -15 0 -8 -9 -15 -20
-15 -17 0 -20 -7 -20 -40 0 -33 -3 -40 -20 -40 -13 0 -20 7 -20 20 0 11 -7 20
-15 20 -8 0 -15 9 -15 20 0 17 -7 20 -40 20 -29 0 -40 4 -40 15 0 8 -7 15 -15
15 -8 0 -15 9 -15 20 0 17 -7 20 -40 20 -33 0 -40 3 -40 20 0 16 -7 20 -35 20
-28 0 -35 4 -35 20 0 17 -7 20 -40 20 -29 0 -40 4 -40 15 0 10 -11 15 -35 15
-28 0 -35 4 -35 20 0 17 -7 20 -40 20 -33 0 -40 3 -40 20 0 18 -7 20 -55 20
-42 0 -55 3 -55 15 0 10 -11 15 -35 15 -28 0 -35 4 -35 20 0 17 -7 20 -40 20
-39 0 -40 -1 -40 -35 0 -24 -5 -35 -15 -35 -8 0 -15 -9 -15 -20 0 -19 -7 -20
-95 -20 -88 0 -95 1 -95 20 0 13 -7 20 -20 20 -16 0 -20 7 -20 35 0 24 -5 35
-15 35 -8 0 -15 -9 -15 -20 0 -13 -7 -20 -20 -20 -11 0 -20 -7 -20 -15 0 -10
-11 -15 -35 -15 -28 0 -35 -4 -35 -20 0 -13 -7 -20 -20 -20 -13 0 -20 -7 -20
-20 0 -13 -7 -20 -20 -20 -11 0 -20 -7 -20 -15 0 -10 -11 -15 -35 -15 l-35 0
0 145 c0 122 2 145 15 145 8 0 15 9 15 20 0 20 -7 20 -295 20 l-295 0 0 -1300z
m1340 800 c0 -11 7 -20 15 -20 12 0 15 -17 15 -95 0 -78 -3 -95 -15 -95 -8 0
-15 -7 -15 -15 0 -12 -15 -15 -75 -15 -60 0 -75 3 -75 15 0 8 -9 15 -20 15
-19 0 -20 7 -20 95 0 88 1 95 20 95 13 0 20 7 20 20 0 18 7 20 75 20 68 0 75
-2 75 -20z m-450 -40 c0 -13 7 -20 20 -20 18 0 20 -7 20 -75 0 -68 -2 -75 -20
-75 -11 0 -20 -7 -20 -15 0 -8 -9 -15 -20 -15 -13 0 -20 -7 -20 -20 0 -16 -7
-20 -35 -20 -28 0 -35 4 -35 20 0 13 -7 20 -20 20 -19 0 -20 7 -20 90 0 83 1
90 20 90 13 0 20 7 20 20 0 18 7 20 55 20 48 0 55 -2 55 -20z m1150 -350 l0
-40 75 0 75 0 0 -35 0 -35 -75 0 c-60 0 -75 3 -75 15 0 8 -7 15 -15 15 -11 0
-15 11 -15 40 0 33 -3 40 -20 40 -13 0 -20 7 -20 20 0 16 7 20 35 20 34 0 35
-1 35 -40z m-1450 -390 c0 -11 -7 -20 -15 -20 -12 0 -15 -13 -15 -55 l0 -55
-40 0 c-39 0 -40 1 -40 35 0 28 4 35 20 35 17 0 20 7 20 40 0 39 1 40 35 40
28 0 35 -4 35 -20z"/>
<path d="M1190 1985 c0 -48 2 -55 20 -55 13 0 20 -7 20 -20 0 -16 7 -20 35
-20 28 0 35 4 35 20 0 13 7 20 20 20 18 0 20 7 20 55 l0 55 -75 0 -75 0 0 -55z"/>
<path d="M820 2025 c0 -8 -9 -15 -20 -15 -18 0 -20 -7 -20 -60 l0 -60 55 0 55
0 0 60 c0 53 -2 60 -20 60 -11 0 -20 7 -20 15 0 8 -7 15 -15 15 -8 0 -15 -7
-15 -15z"/>
<path d="M850 2545 c0 -48 2 -55 20 -55 17 0 20 -7 20 -40 0 -33 3 -40 20 -40
11 0 20 -7 20 -15 0 -10 11 -15 35 -15 24 0 35 5 35 15 0 8 9 15 20 15 13 0
20 7 20 20 0 13 7 20 20 20 13 0 20 7 20 20 0 11 7 20 15 20 12 0 15 13 15 55
l0 55 -35 0 c-33 0 -35 -2 -35 -35 0 -28 -4 -35 -20 -35 -13 0 -20 -7 -20 -20
0 -18 -7 -20 -55 -20 l-55 0 0 55 c0 48 -2 55 -20 55 -18 0 -20 -7 -20 -55z"/>
<path d="M1820 2580 c0 -13 7 -20 20 -20 11 0 20 -7 20 -15 0 -8 7 -15 15 -15
8 0 15 7 15 15 0 8 -7 15 -15 15 -8 0 -15 9 -15 20 0 13 -7 20 -20 20 -13 0
-20 -7 -20 -20z"/>
<path d="M1970 2470 c0 -13 7 -20 20 -20 13 0 20 7 20 20 0 13 -7 20 -20 20
-13 0 -20 -7 -20 -20z"/>
</g>
</svg>
